<svg width="138" height="80" viewBox="0 0 138 80" fill="none" xmlns="http://www.w3.org/2000/svg">
<path d="M12.9656 7.66V20H11.2256V7.66H7.32562V6H16.8656V7.66H12.9656ZM21.2458 7.62C21.0324 7.82 20.7724 7.92 20.4658 7.92C20.1591 7.92 19.8991 7.81333 19.6858 7.6C19.4858 7.38667 19.3858 7.13333 19.3858 6.84C19.3858 6.53333 19.4924 6.27333 19.7058 6.06C19.9191 5.83333 20.1724 5.72 20.4658 5.72C20.7724 5.72 21.0324 5.83333 21.2458 6.06C21.4591 6.27333 21.5658 6.53333 21.5658 6.84C21.5658 7.14667 21.4591 7.40667 21.2458 7.62ZM19.6058 20V9.78H21.3458V20H19.6058ZM36.6439 20V13.8C36.6439 12.0267 35.9572 11.14 34.5839 11.14C33.9306 11.14 33.3972 11.3933 32.9839 11.9C32.5839 12.3933 32.3839 13.0467 32.3839 13.86V20H30.6439V13.8C30.6439 12.0267 29.9639 11.14 28.6039 11.14C27.9239 11.14 27.3839 11.38 26.9839 11.86C26.5972 12.3267 26.4039 12.9667 26.4039 13.78V20H24.6639V9.78H26.4039V10.74C27.0039 9.94 27.8972 9.54 29.0839 9.54C29.6572 9.54 30.1839 9.67333 30.6639 9.94C31.1572 10.1933 31.5439 10.56 31.8239 11.04C32.4772 10.04 33.4639 9.54 34.7839 9.54C35.8506 9.54 36.7172 9.86667 37.3839 10.52C38.0506 11.1733 38.3839 12.1 38.3839 13.3V20H36.6439ZM45.518 20.24C44.1313 20.24 43.0246 19.7467 42.198 18.76C41.3846 17.76 40.978 16.4667 40.978 14.88C40.978 13.2133 41.3913 11.9067 42.218 10.96C43.0446 10.0133 44.1446 9.54 45.518 9.54C46.7446 9.54 47.7513 9.95333 48.538 10.78C49.338 11.5933 49.738 12.8 49.738 14.4C49.738 14.7733 49.718 15.16 49.678 15.56H42.758C42.8246 16.4933 43.1113 17.2467 43.618 17.82C44.138 18.38 44.7846 18.66 45.558 18.66C46.4113 18.66 47.1446 18.3533 47.758 17.74L48.818 18.92C47.938 19.8 46.838 20.24 45.518 20.24ZM42.738 14.08H47.978C47.9646 13.0267 47.7113 12.2667 47.218 11.8C46.738 11.32 46.1713 11.08 45.518 11.08C44.7313 11.08 44.0846 11.3333 43.578 11.84C43.0713 12.3333 42.7913 13.08 42.738 14.08ZM57.3467 20V6H62.7067C63.5201 6 64.2267 6.12 64.8267 6.36C65.4401 6.6 65.9134 6.92667 66.2467 7.34C66.5801 7.74 66.8267 8.18 66.9867 8.66C67.1467 9.14 67.2267 9.65333 67.2267 10.2C67.2267 11.3067 66.8467 12.28 66.0867 13.12C65.3401 13.96 64.2134 14.38 62.7067 14.38H59.0867V20H57.3467ZM62.8267 12.76C63.7334 12.76 64.4001 12.5067 64.8267 12C65.2667 11.4933 65.4867 10.8933 65.4867 10.2C65.4867 9.52 65.2801 8.92 64.8667 8.4C64.4534 7.88 63.7734 7.62 62.8267 7.62H59.0867V12.76H62.8267ZM69.6444 20V9.78H71.3844V11.12C71.8644 10.0667 72.671 9.54 73.8044 9.54C74.4444 9.54 74.971 9.71333 75.3844 10.06L75.1244 11.7C74.6977 11.4067 74.211 11.26 73.6644 11.26C73.0644 11.26 72.531 11.4933 72.0644 11.96C71.611 12.4267 71.3844 13.1867 71.3844 14.24V20H69.6444ZM84.6378 18.82C83.8245 19.7667 82.7245 20.24 81.3378 20.24C79.9511 20.24 78.8511 19.7667 78.0378 18.82C77.2245 17.8733 76.8178 16.5667 76.8178 14.9C76.8178 13.2333 77.2245 11.9267 78.0378 10.98C78.8511 10.02 79.9511 9.54 81.3378 9.54C82.7245 9.54 83.8245 10.0133 84.6378 10.96C85.4511 11.9067 85.8578 13.2133 85.8578 14.88C85.8578 16.5467 85.4511 17.86 84.6378 18.82ZM79.2978 17.64C79.7911 18.2933 80.4711 18.62 81.3378 18.62C82.2045 18.62 82.8778 18.2933 83.3578 17.64C83.8511 16.9733 84.0978 16.0533 84.0978 14.88C84.0978 13.72 83.8511 12.8067 83.3578 12.14C82.8778 11.4733 82.2045 11.14 81.3378 11.14C80.4711 11.14 79.7911 11.4733 79.2978 12.14C78.8178 12.7933 78.5778 13.7133 78.5778 14.9C78.5778 16.06 78.8178 16.9733 79.2978 17.64ZM91.3302 20.24C89.8902 20.24 89.1702 19.4267 89.1702 17.8V11.3H87.5102V9.78H89.1702V6.4L90.9102 5.56V9.78H93.4302V11.3H90.9102V17.22C90.9102 17.6733 90.9835 18.02 91.1302 18.26C91.2768 18.5 91.5568 18.62 91.9702 18.62C92.4235 18.62 92.9302 18.44 93.4902 18.08L93.2902 19.78C92.7035 20.0867 92.0502 20.24 91.3302 20.24ZM103.075 18.82C102.262 19.7667 101.162 20.24 99.7753 20.24C98.3886 20.24 97.2886 19.7667 96.4753 18.82C95.662 17.8733 95.2553 16.5667 95.2553 14.9C95.2553 13.2333 95.662 11.9267 96.4753 10.98C97.2886 10.02 98.3886 9.54 99.7753 9.54C101.162 9.54 102.262 10.0133 103.075 10.96C103.889 11.9067 104.295 13.2133 104.295 14.88C104.295 16.5467 103.889 17.86 103.075 18.82ZM97.7353 17.64C98.2286 18.2933 98.9086 18.62 99.7753 18.62C100.642 18.62 101.315 18.2933 101.795 17.64C102.289 16.9733 102.535 16.0533 102.535 14.88C102.535 13.72 102.289 12.8067 101.795 12.14C101.315 11.4733 100.642 11.14 99.7753 11.14C98.9086 11.14 98.2286 11.4733 97.7353 12.14C97.2553 12.7933 97.0153 13.7133 97.0153 14.9C97.0153 16.06 97.2553 16.9733 97.7353 17.64ZM110.648 20.24C109.341 20.24 108.308 19.7733 107.548 18.84C106.788 17.8933 106.408 16.58 106.408 14.9C106.408 13.22 106.788 11.9067 107.548 10.96C108.321 10.0133 109.381 9.54 110.728 9.54C112.541 9.54 113.734 10.3333 114.308 11.92L112.668 12.52C112.321 11.6133 111.681 11.16 110.748 11.16C109.894 11.16 109.254 11.4867 108.828 12.14C108.401 12.7933 108.188 13.7133 108.188 14.9C108.188 16.0733 108.401 16.9867 108.828 17.64C109.254 18.28 109.874 18.6 110.688 18.6C111.754 18.6 112.448 18.0933 112.768 17.08L114.388 17.62C114.134 18.46 113.681 19.1067 113.028 19.56C112.388 20.0133 111.594 20.24 110.648 20.24ZM124.228 18.82C123.414 19.7667 122.314 20.24 120.928 20.24C119.541 20.24 118.441 19.7667 117.628 18.82C116.814 17.8733 116.408 16.5667 116.408 14.9C116.408 13.2333 116.814 11.9267 117.628 10.98C118.441 10.02 119.541 9.54 120.928 9.54C122.314 9.54 123.414 10.0133 124.228 10.96C125.041 11.9067 125.448 13.2133 125.448 14.88C125.448 16.5467 125.041 17.86 124.228 18.82ZM118.888 17.64C119.381 18.2933 120.061 18.62 120.928 18.62C121.794 18.62 122.468 18.2933 122.948 17.64C123.441 16.9733 123.688 16.0533 123.688 14.88C123.688 13.72 123.441 12.8067 122.948 12.14C122.468 11.4733 121.794 11.14 120.928 11.14C120.061 11.14 119.381 11.4733 118.888 12.14C118.408 12.7933 118.168 13.7133 118.168 14.9C118.168 16.06 118.408 16.9733 118.888 17.64ZM128.26 20V6.38L130 5.56V20H128.26Z" transform="translate(0 54)" fill="white"/>
<path d="M10.6128 34C9.58866 40.7253 8.11522 45 5.92291 45C3.69261 45 1.75023 40.3171 0.73995 33.3984C0.268474 30.1696 0 26.4539 0 22.5C0 18.5461 0.268474 14.8304 0.73995 11.6016C1.75023 4.6829 3.69261 0 5.92291 0C8.11522 0 9.61276 3.5 10.1128 10.5" transform="translate(58.3872 1)" stroke="white" stroke-width="1.7" stroke-linecap="round" stroke-linejoin="round"/>
<path d="M0.0440624 11.2006C1.06429 4.49779 2.9484 0 5.10396 0C7.27888 0 9.17745 4.57894 10.1911 11.3817C10.688 14.7162 10.9723 18.5849 10.9723 22.7106C10.9723 26.7564 10.6989 30.555 10.2198 33.845C9.21351 40.7549 7.29955 45.4213 5.10396 45.4213C2.95297 45.4213 1.02171 42.3226 0 35.6433" transform="matrix(0.504652 0.863323 -0.868686 0.495363 81.4628 7.84375)" stroke="white" stroke-width="1.7" stroke-linecap="round" stroke-linejoin="round"/>
<path d="M9.98148 33.9165C9.47888 41.1155 8.04323 45.4213 5.86831 45.4213C3.69797 45.4213 1.80282 40.8616 0.787553 34.0825C0.286715 30.7383 0 26.8541 0 22.7106C0 18.4923 0.297169 14.5427 0.814907 11.158C1.83662 4.47876 3.71732 0 5.86831 0C8.0639 0 9.45029 3.71929 10.0641 10.8453" transform="matrix(-0.504652 0.863323 -0.868686 -0.495363 87 29.6836)" stroke="white" stroke-width="1.7" stroke-linecap="round" stroke-linejoin="round"/>
<path d="M61.9751 10.2216C62.0975 9.68307 61.7602 9.14727 61.2216 9.02487C60.6831 8.90247 60.1473 9.23983 60.0249 9.77838L61.9751 10.2216ZM18.5331 15.5L18.7142 14.5165L18.6244 14.5H18.5331V15.5ZM1.03311 0C1.03311 -0.552285 0.585392 -1 0.0331073 -1C-0.519177 -1 -0.966893 -0.552285 -0.966893 0H1.03311ZM60.0249 9.77838C59.4797 12.1771 57.9404 13.897 55.5352 15.0974C53.0961 16.3148 49.8025 16.9736 45.8989 17.189C38.0974 17.6195 28.2063 16.2651 18.7142 14.5165L18.3519 16.4835C27.8598 18.2349 37.9522 19.6305 46.0091 19.186C50.0348 18.9639 53.6392 18.279 56.4283 16.8869C59.2512 15.478 61.2703 13.3229 61.9751 10.2216L60.0249 9.77838ZM18.5331 14.5C13.5285 14.5 9.94984 14.1364 7.39026 13.4696C4.84007 12.8052 3.38195 11.8611 2.50861 10.7548C1.63083 9.64279 1.23763 8.23441 1.08547 6.41591C0.930576 4.56474 1.03311 2.48711 1.03311 0H-0.966893C-0.966893 2.34538 -1.07166 4.62149 -0.907563 6.58267C-0.74073 8.57651 -0.288635 10.4391 0.93878 11.994C2.17063 13.5545 4.07761 14.6733 6.88602 15.405C9.68503 16.1342 13.4585 16.5 18.5331 16.5V14.5Z" transform="translate(28 12)" fill="url(#paint0_linear)"/>
<g filter="url(#filter0_d)">
<path d="M2.69616 1C2.69616 1.82843 2.19615 3.5 1.19614 3.5C0.196163 3.5 -0.303809 3 0.196167 2C0.696167 1 0.696143 0 1.69614 0C2.13062 0 2.69616 0.171573 2.69616 1Z" transform="translate(87.3038 21)" fill="url(#paint1_linear)" fill-opacity="0.86"/>
</g>
<defs>
<filter id="filter0_d" x="82.3039" y="16" width="12.6961" height="13.5" filterUnits="userSpaceOnUse" color-interpolation-filters="sRGB">
<feFlood flood-opacity="0" result="BackgroundImageFix"/>
<feColorMatrix in="SourceAlpha" type="matrix" values="0 0 0 0 0 0 0 0 0 0 0 0 0 0 0 0 0 0 255 0"/>
<feOffset/>
<feGaussianBlur stdDeviation="2.5"/>
<feColorMatrix type="matrix" values="0 0 0 0 1 0 0 0 0 1 0 0 0 0 1 0 0 0 1 0"/>
<feBlend mode="normal" in2="BackgroundImageFix" result="effect1_dropShadow"/>
<feBlend mode="normal" in="SourceGraphic" in2="effect1_dropShadow" result="shape"/>
</filter>
<linearGradient id="paint0_linear" x2="1" gradientUnits="userSpaceOnUse" gradientTransform="matrix(-61.5 -21.5 89.6857 -256.543 21.6902 158.271)">
<stop stop-color="white"/>
<stop offset="1" stop-color="white" stop-opacity="0"/>
</linearGradient>
<linearGradient id="paint1_linear" x2="1" gradientUnits="userSpaceOnUse" gradientTransform="matrix(-0.651914 2.5 -1.92583 -0.50219 2.311 0.251095)">
<stop stop-color="white"/>
<stop offset="1" stop-color="white" stop-opacity="0"/>
</linearGradient>
</defs>
</svg>
