<svg width="223" height="47" viewBox="0 0 223 47" fill="none" xmlns="http://www.w3.org/2000/svg">
<path d="M8.04 9.192V24H5.952V9.192H1.272V7.2H12.72V9.192H8.04ZM17.9762 9.144C17.7202 9.384 17.4082 9.504 17.0402 9.504C16.6722 9.504 16.3602 9.376 16.1042 9.12C15.8642 8.864 15.7442 8.56 15.7442 8.208C15.7442 7.84 15.8722 7.528 16.1282 7.272C16.3842 7 16.6882 6.864 17.0402 6.864C17.4082 6.864 17.7202 7 17.9762 7.272C18.2322 7.528 18.3602 7.84 18.3602 8.208C18.3602 8.576 18.2322 8.888 17.9762 9.144ZM16.0082 24V11.736H18.0962V24H16.0082ZM36.4539 24V16.56C36.4539 14.432 35.6299 13.368 33.9819 13.368C33.1979 13.368 32.5579 13.672 32.0619 14.28C31.5819 14.872 31.3419 15.656 31.3419 16.632V24H29.2539V16.56C29.2539 14.432 28.4379 13.368 26.8059 13.368C25.9899 13.368 25.3419 13.656 24.8619 14.232C24.3979 14.792 24.1659 15.56 24.1659 16.536V24H22.0779V11.736H24.1659V12.888C24.8859 11.928 25.9579 11.448 27.3819 11.448C28.0699 11.448 28.7019 11.608 29.2779 11.928C29.8699 12.232 30.3339 12.672 30.6699 13.248C31.4539 12.048 32.6379 11.448 34.2219 11.448C35.5019 11.448 36.5419 11.84 37.3419 12.624C38.1419 13.408 38.5419 14.52 38.5419 15.96V24H36.4539ZM47.1028 24.288C45.4388 24.288 44.1108 23.696 43.1188 22.512C42.1428 21.312 41.6548 19.76 41.6548 17.856C41.6548 15.856 42.1508 14.288 43.1428 13.152C44.1348 12.016 45.4548 11.448 47.1028 11.448C48.5748 11.448 49.7828 11.944 50.7268 12.936C51.6868 13.912 52.1668 15.36 52.1668 17.28C52.1668 17.728 52.1428 18.192 52.0948 18.672H43.7908C43.8708 19.792 44.2148 20.696 44.8228 21.384C45.4468 22.056 46.2228 22.392 47.1508 22.392C48.1748 22.392 49.0548 22.024 49.7908 21.288L51.0628 22.704C50.0068 23.76 48.6868 24.288 47.1028 24.288ZM43.7668 16.896H50.0548C50.0388 15.632 49.7348 14.72 49.1428 14.16C48.5668 13.584 47.8868 13.296 47.1028 13.296C46.1588 13.296 45.3828 13.6 44.7748 14.208C44.1668 14.8 43.8308 15.696 43.7668 16.896ZM61.2973 24V7.2H67.7293C68.7053 7.2 69.5533 7.344 70.2733 7.632C71.0093 7.92 71.5773 8.312 71.9773 8.808C72.3773 9.288 72.6733 9.816 72.8653 10.392C73.0573 10.968 73.1533 11.584 73.1533 12.24C73.1533 13.568 72.6973 14.736 71.7853 15.744C70.8893 16.752 69.5373 17.256 67.7293 17.256H63.3853V24H61.2973ZM67.8733 15.312C68.9613 15.312 69.7613 15.008 70.2733 14.4C70.8013 13.792 71.0653 13.072 71.0653 12.24C71.0653 11.424 70.8173 10.704 70.3213 10.08C69.8253 9.456 69.0093 9.144 67.8733 9.144H63.3853V15.312H67.8733ZM76.0545 24V11.736H78.1425V13.344C78.7185 12.08 79.6865 11.448 81.0465 11.448C81.8145 11.448 82.4465 11.656 82.9425 12.072L82.6305 14.04C82.1185 13.688 81.5345 13.512 80.8785 13.512C80.1585 13.512 79.5185 13.792 78.9585 14.352C78.4145 14.912 78.1425 15.824 78.1425 17.088V24H76.0545ZM94.0466 22.584C93.0706 23.72 91.7506 24.288 90.0866 24.288C88.4226 24.288 87.1026 23.72 86.1266 22.584C85.1506 21.448 84.6626 19.88 84.6626 17.88C84.6626 15.88 85.1506 14.312 86.1266 13.176C87.1026 12.024 88.4226 11.448 90.0866 11.448C91.7506 11.448 93.0706 12.016 94.0466 13.152C95.0226 14.288 95.5106 15.856 95.5106 17.856C95.5106 19.856 95.0226 21.432 94.0466 22.584ZM87.6386 21.168C88.2306 21.952 89.0466 22.344 90.0866 22.344C91.1266 22.344 91.9346 21.952 92.5106 21.168C93.1026 20.368 93.3986 19.264 93.3986 17.856C93.3986 16.464 93.1026 15.368 92.5106 14.568C91.9346 13.768 91.1266 13.368 90.0866 13.368C89.0466 13.368 88.2306 13.768 87.6386 14.568C87.0626 15.352 86.7746 16.456 86.7746 17.88C86.7746 19.272 87.0626 20.368 87.6386 21.168ZM102.077 24.288C100.349 24.288 99.4854 23.312 99.4854 21.36V13.56H97.4934V11.736H99.4854V7.68L101.573 6.672V11.736H104.597V13.56H101.573V20.664C101.573 21.208 101.661 21.624 101.837 21.912C102.013 22.2 102.349 22.344 102.845 22.344C103.389 22.344 103.997 22.128 104.669 21.696L104.429 23.736C103.725 24.104 102.941 24.288 102.077 24.288ZM116.172 22.584C115.196 23.72 113.876 24.288 112.212 24.288C110.548 24.288 109.228 23.72 108.252 22.584C107.276 21.448 106.788 19.88 106.788 17.88C106.788 15.88 107.276 14.312 108.252 13.176C109.228 12.024 110.548 11.448 112.212 11.448C113.876 11.448 115.196 12.016 116.172 13.152C117.148 14.288 117.636 15.856 117.636 17.856C117.636 19.856 117.148 21.432 116.172 22.584ZM109.764 21.168C110.356 21.952 111.172 22.344 112.212 22.344C113.252 22.344 114.06 21.952 114.636 21.168C115.228 20.368 115.524 19.264 115.524 17.856C115.524 16.464 115.228 15.368 114.636 14.568C114.06 13.768 113.252 13.368 112.212 13.368C111.172 13.368 110.356 13.768 109.764 14.568C109.188 15.352 108.9 16.456 108.9 17.88C108.9 19.272 109.188 20.368 109.764 21.168ZM125.258 24.288C123.69 24.288 122.45 23.728 121.538 22.608C120.626 21.472 120.17 19.896 120.17 17.88C120.17 15.864 120.626 14.288 121.538 13.152C122.466 12.016 123.738 11.448 125.354 11.448C127.53 11.448 128.962 12.4 129.65 14.304L127.682 15.024C127.266 13.936 126.498 13.392 125.378 13.392C124.354 13.392 123.586 13.784 123.074 14.568C122.562 15.352 122.306 16.456 122.306 17.88C122.306 19.288 122.562 20.384 123.074 21.168C123.586 21.936 124.33 22.32 125.306 22.32C126.586 22.32 127.418 21.712 127.802 20.496L129.746 21.144C129.442 22.152 128.898 22.928 128.114 23.472C127.346 24.016 126.394 24.288 125.258 24.288ZM141.554 22.584C140.578 23.72 139.258 24.288 137.594 24.288C135.93 24.288 134.61 23.72 133.634 22.584C132.658 21.448 132.17 19.88 132.17 17.88C132.17 15.88 132.658 14.312 133.634 13.176C134.61 12.024 135.93 11.448 137.594 11.448C139.258 11.448 140.578 12.016 141.554 13.152C142.53 14.288 143.018 15.856 143.018 17.856C143.018 19.856 142.53 21.432 141.554 22.584ZM135.146 21.168C135.738 21.952 136.554 22.344 137.594 22.344C138.634 22.344 139.442 21.952 140.018 21.168C140.61 20.368 140.906 19.264 140.906 17.856C140.906 16.464 140.61 15.368 140.018 14.568C139.442 13.768 138.634 13.368 137.594 13.368C136.554 13.368 135.738 13.768 135.146 14.568C134.57 15.352 134.282 16.456 134.282 17.88C134.282 19.272 134.57 20.368 135.146 21.168ZM146.393 24V7.656L148.481 6.672V24H146.393Z" transform="translate(72 9)" fill="#4E74D8"/>
<path d="M10.6128 34C9.58866 40.7253 8.11522 45 5.92291 45C3.69261 45 1.75023 40.3171 0.73995 33.3984C0.268474 30.1696 0 26.4539 0 22.5C0 18.5461 0.268474 14.8304 0.73995 11.6016C1.75023 4.6829 3.69261 0 5.92291 0C8.11522 0 9.61276 3.5 10.1128 10.5" transform="translate(31.3872 1)" stroke="#4E74D8" stroke-width="1.7" stroke-linecap="round" stroke-linejoin="round"/>
<path d="M0.0440624 11.2006C1.06429 4.49779 2.9484 0 5.10396 0C7.27888 0 9.17745 4.57894 10.1911 11.3817C10.688 14.7162 10.9723 18.5849 10.9723 22.7106C10.9723 26.7564 10.6989 30.555 10.2198 33.845C9.21351 40.7549 7.29955 45.4213 5.10396 45.4213C2.95297 45.4213 1.02171 42.3226 0 35.6433" transform="matrix(0.504652 0.863323 -0.868686 0.495363 54.4628 7.84363)" stroke="#4E74D8" stroke-width="1.7" stroke-linecap="round" stroke-linejoin="round"/>
<path d="M9.98148 33.9165C9.47888 41.1155 8.04323 45.4213 5.86831 45.4213C3.69797 45.4213 1.80282 40.8616 0.787553 34.0825C0.286715 30.7383 0 26.8541 0 22.7106C0 18.4923 0.297169 14.5427 0.814907 11.158C1.83662 4.47876 3.71732 0 5.86831 0C8.0639 0 9.45029 3.71929 10.0641 10.8453" transform="matrix(-0.504652 0.863323 -0.868686 -0.495363 60 29.6837)" stroke="#4E74D8" stroke-width="1.7" stroke-linecap="round" stroke-linejoin="round"/>
<path d="M61.9751 10.2216C62.0975 9.68307 61.7602 9.14727 61.2216 9.02487C60.6831 8.90247 60.1473 9.23983 60.0249 9.77838L61.9751 10.2216ZM18.5331 15.5L18.7142 14.5165L18.6244 14.5H18.5331V15.5ZM1.03311 0C1.03311 -0.552285 0.585392 -1 0.0331073 -1C-0.519177 -1 -0.966893 -0.552285 -0.966893 0H1.03311ZM60.0249 9.77838C59.4797 12.1771 57.9404 13.897 55.5352 15.0974C53.0961 16.3148 49.8025 16.9736 45.8989 17.189C38.0974 17.6195 28.2063 16.2651 18.7142 14.5165L18.3519 16.4835C27.8598 18.2349 37.9522 19.6305 46.0091 19.186C50.0348 18.9639 53.6392 18.279 56.4283 16.8869C59.2512 15.478 61.2703 13.3229 61.9751 10.2216L60.0249 9.77838ZM18.5331 14.5C13.5285 14.5 9.94984 14.1364 7.39026 13.4696C4.84007 12.8052 3.38195 11.8611 2.50861 10.7548C1.63083 9.64279 1.23763 8.23441 1.08547 6.41591C0.930576 4.56474 1.03311 2.48711 1.03311 0H-0.966893C-0.966893 2.34538 -1.07166 4.62149 -0.907563 6.58267C-0.74073 8.57651 -0.288635 10.4391 0.93878 11.994C2.17063 13.5545 4.07761 14.6733 6.88602 15.405C9.68503 16.1342 13.4585 16.5 18.5331 16.5V14.5Z" transform="translate(1 12)" fill="url(#paint0_linear)"/>
<g filter="url(#filter0_d)">
<path d="M2.69616 1C2.69616 1.82843 2.19615 3.5 1.19614 3.5C0.196163 3.5 -0.303809 3 0.196167 2C0.696167 1 0.696143 0 1.69614 0C2.13062 0 2.69616 0.171573 2.69616 1Z" transform="translate(60.3038 21)" fill="url(#paint1_linear)" fill-opacity="0.86"/>
</g>
<defs>
<filter id="filter0_d" x="55.3039" y="16" width="12.6961" height="13.5" filterUnits="userSpaceOnUse" color-interpolation-filters="sRGB">
<feFlood flood-opacity="0" result="BackgroundImageFix"/>
<feColorMatrix in="SourceAlpha" type="matrix" values="0 0 0 0 0 0 0 0 0 0 0 0 0 0 0 0 0 0 255 0"/>
<feOffset/>
<feGaussianBlur stdDeviation="2.5"/>
<feColorMatrix type="matrix" values="0 0 0 0 1 0 0 0 0 1 0 0 0 0 1 0 0 0 1 0"/>
<feBlend mode="normal" in2="BackgroundImageFix" result="effect1_dropShadow"/>
<feBlend mode="normal" in="SourceGraphic" in2="effect1_dropShadow" result="shape"/>
</filter>
<linearGradient id="paint0_linear" x2="1" gradientUnits="userSpaceOnUse" gradientTransform="matrix(-61.5 -21.5 89.6857 -256.543 21.6902 158.271)">
<stop stop-color="#4E74D8"/>
<stop offset="1" stop-color="#4E74D8" stop-opacity="0"/>
</linearGradient>
<linearGradient id="paint1_linear" x2="1" gradientUnits="userSpaceOnUse" gradientTransform="matrix(-0.651914 2.5 -1.92583 -0.50219 2.311 0.251095)">
<stop stop-color="#4E74D8"/>
<stop offset="1" stop-color="#4E74D8" stop-opacity="0"/>
</linearGradient>
</defs>
</svg>
